<svg xmlns="http://www.w3.org/2000/svg" xmlns:xlink="http://www.w3.org/1999/xlink" width="500" zoomAndPan="magnify" viewBox="0 0 375 374.999991" height="500" preserveAspectRatio="xMidYMid meet" version="1.0"><defs><clipPath id="8b9466e3b1"><path d="M 96.945312 102 L 256 102 L 256 315 L 96.945312 315 Z M 96.945312 102 " clip-rule="nonzero"/></clipPath><clipPath id="16fe60ae9e"><path d="M 174 51.582031 L 198 51.582031 L 198 63 L 174 63 Z M 174 51.582031 " clip-rule="nonzero"/></clipPath><clipPath id="f797078b3a"><path d="M 185 69 L 277.695312 69 L 277.695312 111 L 185 111 Z M 185 69 " clip-rule="nonzero"/></clipPath><clipPath id="de8dcedb00"><path d="M 185 56 L 277.695312 56 L 277.695312 106 L 185 106 Z M 185 56 " clip-rule="nonzero"/></clipPath><clipPath id="c53e78903b"><path d="M 185 67 L 277.695312 67 L 277.695312 106 L 185 106 Z M 185 67 " clip-rule="nonzero"/></clipPath></defs><g clip-path="url(#8b9466e3b1)"><path fill="#ffffff" d="M 178.269531 102.097656 C 178.175781 102.085938 178.078125 102.085938 177.980469 102.085938 C 177.980469 102.085938 159.042969 102.695312 140.867188 111.546875 C 128.554688 117.535156 116.617188 127.265625 110.898438 142.972656 C 101.09375 169.933594 103.378906 186.304688 107.359375 200.25 C 109.914062 209.1875 113.242188 217.09375 114.351562 226.300781 C 116 239.878906 109.433594 253.9375 104.042969 265.816406 C 100.167969 274.351562 96.90625 281.871094 96.964844 287.414062 C 97.109375 302.101562 107.023438 309.054688 115.09375 310.992188 C 124.734375 313.296875 152.074219 323.371094 195.320312 296.953125 C 237.265625 271.34375 245.535156 238.769531 247.9375 232.761719 C 252.933594 220.226562 264.023438 179.914062 245.882812 141.507812 C 227.574219 102.742188 188.261719 103.023438 178.269531 102.097656 Z M 178 106.753906 C 187.652344 107.613281 224.527344 107.21875 241.671875 143.503906 C 259.066406 180.335938 248.402344 219.011719 243.609375 231.035156 C 241.292969 236.832031 233.339844 268.265625 192.890625 292.980469 C 151.53125 318.234375 125.402344 308.660156 116.183594 306.449219 C 109.664062 304.898438 101.75 299.21875 101.632812 287.367188 C 101.566406 280.964844 106.570312 271.824219 111.128906 261.421875 C 116.011719 250.273438 120.445312 237.804688 118.988281 225.742188 C 118.121094 218.589844 116 212.195312 113.859375 205.53125 C 109.117188 190.703125 104.398438 174.492188 115.285156 144.574219 C 120.542969 130.128906 131.582031 121.246094 142.902344 115.742188 C 159.292969 107.765625 176.324219 106.832031 178 106.753906 Z M 178 106.753906 " fill-opacity="1" fill-rule="evenodd"/></g><path fill="#ffffff" d="M 180.730469 103.648438 C 180.730469 103.648438 182.40625 86.398438 181.644531 71.90625 C 181.308594 65.4375 180.460938 59.507812 178.851562 55.726562 C 178.347656 54.539062 176.980469 53.992188 175.792969 54.492188 C 174.605469 54.996094 174.058594 56.363281 174.558594 57.550781 C 176.003906 60.953125 176.679688 66.324219 176.988281 72.148438 C 177.730469 86.332031 176.089844 103.195312 176.089844 103.195312 C 175.964844 104.480469 176.902344 105.617188 178.183594 105.742188 C 179.464844 105.867188 180.605469 104.933594 180.730469 103.648438 Z M 180.730469 103.648438 " fill-opacity="1" fill-rule="evenodd"/><path fill="#ffffff" d="M 187.671875 105.460938 C 187.671875 105.460938 198.289062 81.136719 198.125 59.382812 C 198.117188 58.097656 197.0625 57.058594 195.773438 57.066406 C 194.488281 57.078125 193.449219 58.136719 193.457031 59.421875 C 193.613281 80.277344 183.390625 103.601562 183.390625 103.601562 C 182.878906 104.777344 183.421875 106.15625 184.597656 106.667969 C 185.78125 107.1875 187.152344 106.648438 187.671875 105.460938 Z M 187.671875 105.460938 " fill-opacity="1" fill-rule="evenodd"/><g clip-path="url(#16fe60ae9e)"><path fill="#ffffff" d="M 175.445312 57.695312 L 175.457031 57.722656 C 175.550781 58.136719 175.785156 58.609375 176.234375 59.035156 C 176.507812 59.285156 177.289062 59.710938 177.421875 59.785156 C 178.484375 60.421875 179.707031 60.828125 180.902344 61.175781 C 182.726562 61.707031 184.710938 61.78125 186.601562 61.984375 C 188.539062 62.179688 190.574219 62.390625 192.503906 62.042969 C 192.839844 61.984375 193.167969 61.886719 193.507812 61.8125 C 194.316406 61.617188 195.878906 61.136719 196.707031 60.402344 C 197.34375 59.84375 197.71875 59.148438 197.824219 58.398438 C 197.921875 57.695312 197.816406 56.863281 197.171875 55.957031 C 196.949219 55.648438 196.679688 55.292969 196.378906 55.03125 C 196.03125 54.722656 195.609375 54.425781 195.210938 54.183594 C 194.578125 53.789062 193.988281 53.46875 193.285156 53.179688 C 192.183594 52.71875 190.988281 52.332031 189.824219 52.0625 C 187.972656 51.636719 185.984375 51.78125 184.113281 51.851562 C 182.96875 51.898438 181.90625 52.226562 180.789062 52.410156 C 179.109375 52.679688 177.394531 53.152344 175.929688 53.972656 C 174.800781 54.609375 174.394531 56.027344 175.03125 57.152344 C 175.148438 57.355469 175.28125 57.539062 175.445312 57.695312 Z M 191.492188 57.480469 L 191.480469 57.480469 C 190.621094 57.117188 189.679688 56.828125 188.773438 56.613281 C 187.316406 56.277344 185.761719 56.460938 184.289062 56.519531 C 183.699219 56.535156 183.140625 56.664062 182.582031 56.796875 C 184.027344 57.152344 185.597656 57.183594 187.085938 57.335938 C 188.53125 57.492188 190.042969 57.703125 191.492188 57.480469 Z M 191.492188 57.480469 " fill-opacity="1" fill-rule="evenodd"/></g><g clip-path="url(#f797078b3a)"><path fill="#ffffff" d="M 186.996094 105.5 C 187.007812 105.5 205.539062 111.152344 226 109.984375 C 246.933594 108.800781 269.75 100.546875 277.617188 72.738281 C 277.972656 71.503906 277.25 70.210938 276.007812 69.863281 C 274.773438 69.507812 273.480469 70.230469 273.132812 71.464844 C 265.929688 96.910156 244.890625 104.246094 225.742188 105.328125 C 206.128906 106.445312 188.355469 101.035156 188.355469 101.035156 C 187.121094 100.671875 185.820312 101.363281 185.445312 102.597656 C 185.070312 103.824219 185.773438 105.125 186.996094 105.5 Z M 186.996094 105.5 Z M 186.996094 105.5 " fill-opacity="1" fill-rule="evenodd"/></g><g clip-path="url(#de8dcedb00)"><path fill="#ffffff" d="M 189.898438 103.96875 C 189.898438 103.96875 193.84375 91.472656 203.050781 79.976562 C 209.089844 72.4375 217.410156 65.3125 228.449219 62.601562 C 240.386719 59.671875 255.421875 61.945312 274.105469 74.058594 C 275.1875 74.761719 276.632812 74.453125 277.335938 73.371094 C 278.03125 72.292969 277.722656 70.847656 276.644531 70.140625 C 256.5 57.085938 240.214844 54.90625 227.339844 58.070312 C 215.222656 61.039062 206.03125 68.792969 199.40625 77.066406 C 189.621094 89.273438 185.453125 102.570312 185.453125 102.570312 C 185.070312 103.804688 185.753906 105.117188 186.976562 105.5 C 188.210938 105.886719 189.515625 105.203125 189.898438 103.96875 Z M 189.898438 103.96875 " fill-opacity="1" fill-rule="evenodd"/></g><g clip-path="url(#c53e78903b)"><path fill="#ffffff" d="M 189.0625 105.152344 C 189.0625 105.152344 210.265625 89.550781 233.253906 79.765625 C 248.074219 73.460938 263.636719 69.398438 274.425781 74.230469 C 275.59375 74.761719 276.980469 74.230469 277.5 73.054688 C 278.03125 71.886719 277.5 70.5 276.335938 69.976562 C 267.433594 65.988281 255.566406 67.191406 243.308594 71.039062 C 215.820312 79.6875 186.292969 101.394531 186.292969 101.394531 C 185.261719 102.15625 185.039062 103.621094 185.800781 104.652344 C 186.5625 105.695312 188.027344 105.914062 189.0625 105.152344 Z M 189.0625 105.152344 " fill-opacity="1" fill-rule="evenodd"/></g><path fill="#ffffff" d="M 217.601562 86.871094 C 217.601562 86.871094 233.945312 88.898438 246.105469 103.988281 C 246.914062 104.992188 248.382812 105.144531 249.382812 104.34375 C 250.386719 103.535156 250.542969 102.058594 249.730469 101.054688 C 236.300781 84.375 218.160156 82.242188 218.160156 82.242188 C 216.878906 82.089844 215.710938 82.996094 215.558594 84.277344 C 215.402344 85.550781 216.320312 86.71875 217.601562 86.871094 Z M 217.601562 86.871094 " fill-opacity="1" fill-rule="evenodd"/><path fill="#ffffff" d="M 237.1875 77.796875 C 237.1875 77.796875 240.253906 74.25 242.625 69.777344 C 244.320312 66.585938 245.605469 62.929688 245.441406 59.691406 C 245.371094 58.40625 244.273438 57.414062 242.980469 57.480469 C 241.699219 57.558594 240.707031 58.660156 240.773438 59.941406 C 240.910156 62.410156 239.800781 65.15625 238.507812 67.597656 C 236.386719 71.578125 233.65625 74.742188 233.65625 74.742188 C 232.808594 75.714844 232.914062 77.191406 233.890625 78.039062 C 234.863281 78.878906 236.335938 78.773438 237.1875 77.796875 Z M 237.1875 77.796875 Z M 237.1875 77.796875 " fill-opacity="1" fill-rule="evenodd"/><path fill="#ffffff" d="M 200.910156 96.351562 C 200.910156 96.351562 204.585938 88.097656 206.640625 81.609375 C 207.621094 78.484375 208.183594 75.707031 208.027344 74.191406 C 207.902344 72.910156 206.753906 71.972656 205.472656 72.109375 C 204.199219 72.234375 203.265625 73.382812 203.390625 74.664062 C 203.503906 75.792969 202.925781 77.855469 202.183594 80.199219 C 200.207031 86.476562 196.648438 94.449219 196.648438 94.449219 C 196.128906 95.628906 196.660156 97.007812 197.835938 97.535156 C 199.011719 98.058594 200.390625 97.527344 200.910156 96.351562 Z M 200.910156 96.351562 " fill-opacity="1" fill-rule="evenodd"/></svg>