<svg xmlns="http://www.w3.org/2000/svg" xmlns:xlink="http://www.w3.org/1999/xlink" width="500" zoomAndPan="magnify" viewBox="0 0 375 374.999991" height="500" preserveAspectRatio="xMidYMid meet" version="1.0"><defs><clipPath id="22ae85060b"><path d="M 96.945312 102 L 256 102 L 256 315 L 96.945312 315 Z M 96.945312 102 " clip-rule="nonzero"/></clipPath><clipPath id="f89085b59b"><path d="M 174 51.582031 L 198 51.582031 L 198 63 L 174 63 Z M 174 51.582031 " clip-rule="nonzero"/></clipPath><clipPath id="08221acef9"><path d="M 185 69 L 277.695312 69 L 277.695312 111 L 185 111 Z M 185 69 " clip-rule="nonzero"/></clipPath><clipPath id="2049de302d"><path d="M 185 56 L 277.695312 56 L 277.695312 106 L 185 106 Z M 185 56 " clip-rule="nonzero"/></clipPath><clipPath id="2507da3a34"><path d="M 185 67 L 277.695312 67 L 277.695312 106 L 185 106 Z M 185 67 " clip-rule="nonzero"/></clipPath><clipPath id="e52a0ac9ff"><path d="M 137.058594 124.972656 L 151.308594 124.972656 L 151.308594 139.222656 L 137.058594 139.222656 Z M 137.058594 124.972656 " clip-rule="nonzero"/></clipPath><clipPath id="16112f898f"><path d="M 122.980469 143.253906 L 137.230469 143.253906 L 137.230469 157.503906 L 122.980469 157.503906 Z M 122.980469 143.253906 " clip-rule="nonzero"/></clipPath><clipPath id="c7dd1fbd0b"><path d="M 144.097656 143.253906 L 156.097656 143.253906 L 156.097656 155.253906 L 144.097656 155.253906 Z M 144.097656 143.253906 " clip-rule="nonzero"/></clipPath><clipPath id="8c0deab210"><path d="M 144.097656 289.246094 L 158.347656 289.246094 L 158.347656 303.496094 L 144.097656 303.496094 Z M 144.097656 289.246094 " clip-rule="nonzero"/></clipPath><clipPath id="ab447e1342"><path d="M 173.425781 280.085938 L 187.675781 280.085938 L 187.675781 294.335938 L 173.425781 294.335938 Z M 173.425781 280.085938 " clip-rule="nonzero"/></clipPath><clipPath id="0612dddeae"><path d="M 162.277344 287.125 L 169.027344 287.125 L 169.027344 293.875 L 162.277344 293.875 Z M 162.277344 287.125 " clip-rule="nonzero"/></clipPath></defs><g clip-path="url(#22ae85060b)"><path fill="#ffffff" d="M 178.269531 102.097656 C 178.175781 102.085938 178.078125 102.085938 177.980469 102.085938 C 177.980469 102.085938 159.042969 102.695312 140.867188 111.546875 C 128.554688 117.535156 116.617188 127.265625 110.898438 142.972656 C 101.09375 169.933594 103.378906 186.304688 107.359375 200.25 C 109.914062 209.1875 113.242188 217.09375 114.351562 226.300781 C 116 239.878906 109.433594 253.9375 104.042969 265.816406 C 100.167969 274.351562 96.90625 281.871094 96.964844 287.414062 C 97.109375 302.101562 107.023438 309.054688 115.09375 310.992188 C 124.734375 313.296875 152.074219 323.371094 195.320312 296.953125 C 237.265625 271.34375 245.535156 238.769531 247.9375 232.761719 C 252.933594 220.226562 264.023438 179.914062 245.882812 141.507812 C 227.574219 102.742188 188.261719 103.023438 178.269531 102.097656 Z M 178 106.753906 C 187.652344 107.613281 224.527344 107.21875 241.671875 143.503906 C 259.066406 180.335938 248.402344 219.011719 243.609375 231.035156 C 241.292969 236.832031 233.339844 268.265625 192.890625 292.980469 C 151.53125 318.234375 125.402344 308.660156 116.183594 306.449219 C 109.664062 304.898438 101.75 299.21875 101.632812 287.367188 C 101.566406 280.964844 106.570312 271.824219 111.128906 261.421875 C 116.011719 250.273438 120.445312 237.804688 118.988281 225.742188 C 118.121094 218.589844 116 212.195312 113.859375 205.53125 C 109.117188 190.703125 104.398438 174.492188 115.285156 144.574219 C 120.542969 130.128906 131.582031 121.246094 142.902344 115.742188 C 159.292969 107.765625 176.324219 106.832031 178 106.753906 Z M 178 106.753906 " fill-opacity="1" fill-rule="evenodd"/></g><path fill="#ffffff" d="M 180.730469 103.648438 C 180.730469 103.648438 182.40625 86.398438 181.644531 71.90625 C 181.308594 65.4375 180.460938 59.507812 178.851562 55.726562 C 178.347656 54.539062 176.980469 53.992188 175.792969 54.492188 C 174.605469 54.996094 174.058594 56.363281 174.558594 57.550781 C 176.003906 60.953125 176.679688 66.324219 176.988281 72.148438 C 177.730469 86.332031 176.089844 103.195312 176.089844 103.195312 C 175.964844 104.480469 176.902344 105.617188 178.183594 105.742188 C 179.464844 105.867188 180.605469 104.933594 180.730469 103.648438 Z M 180.730469 103.648438 " fill-opacity="1" fill-rule="evenodd"/><path fill="#ffffff" d="M 187.671875 105.460938 C 187.671875 105.460938 198.289062 81.136719 198.125 59.382812 C 198.117188 58.097656 197.0625 57.058594 195.773438 57.066406 C 194.488281 57.078125 193.449219 58.136719 193.457031 59.421875 C 193.613281 80.277344 183.390625 103.601562 183.390625 103.601562 C 182.878906 104.777344 183.421875 106.15625 184.597656 106.667969 C 185.78125 107.1875 187.152344 106.648438 187.671875 105.460938 Z M 187.671875 105.460938 " fill-opacity="1" fill-rule="evenodd"/><g clip-path="url(#f89085b59b)"><path fill="#ffffff" d="M 175.445312 57.695312 L 175.457031 57.722656 C 175.550781 58.136719 175.785156 58.609375 176.234375 59.035156 C 176.507812 59.285156 177.289062 59.710938 177.421875 59.785156 C 178.484375 60.421875 179.707031 60.828125 180.902344 61.175781 C 182.726562 61.707031 184.710938 61.78125 186.601562 61.984375 C 188.539062 62.179688 190.574219 62.390625 192.503906 62.042969 C 192.839844 61.984375 193.167969 61.886719 193.507812 61.8125 C 194.316406 61.617188 195.878906 61.136719 196.707031 60.402344 C 197.34375 59.84375 197.71875 59.148438 197.824219 58.398438 C 197.921875 57.695312 197.816406 56.863281 197.171875 55.957031 C 196.949219 55.648438 196.679688 55.292969 196.378906 55.03125 C 196.03125 54.722656 195.609375 54.425781 195.210938 54.183594 C 194.578125 53.789062 193.988281 53.46875 193.285156 53.179688 C 192.183594 52.71875 190.988281 52.332031 189.824219 52.0625 C 187.972656 51.636719 185.984375 51.78125 184.113281 51.851562 C 182.96875 51.898438 181.90625 52.226562 180.789062 52.410156 C 179.109375 52.679688 177.394531 53.152344 175.929688 53.972656 C 174.800781 54.609375 174.394531 56.027344 175.03125 57.152344 C 175.148438 57.355469 175.28125 57.539062 175.445312 57.695312 Z M 191.492188 57.480469 L 191.480469 57.480469 C 190.621094 57.117188 189.679688 56.828125 188.773438 56.613281 C 187.316406 56.277344 185.761719 56.460938 184.289062 56.519531 C 183.699219 56.535156 183.140625 56.664062 182.582031 56.796875 C 184.027344 57.152344 185.597656 57.183594 187.085938 57.335938 C 188.53125 57.492188 190.042969 57.703125 191.492188 57.480469 Z M 191.492188 57.480469 " fill-opacity="1" fill-rule="evenodd"/></g><g clip-path="url(#08221acef9)"><path fill="#ffffff" d="M 186.996094 105.5 C 187.007812 105.5 205.539062 111.152344 226 109.984375 C 246.933594 108.800781 269.75 100.546875 277.617188 72.738281 C 277.972656 71.503906 277.25 70.210938 276.007812 69.863281 C 274.773438 69.507812 273.480469 70.230469 273.132812 71.464844 C 265.929688 96.910156 244.890625 104.246094 225.742188 105.328125 C 206.128906 106.445312 188.355469 101.035156 188.355469 101.035156 C 187.121094 100.671875 185.820312 101.363281 185.445312 102.597656 C 185.070312 103.824219 185.773438 105.125 186.996094 105.5 Z M 186.996094 105.5 Z M 186.996094 105.5 " fill-opacity="1" fill-rule="evenodd"/></g><g clip-path="url(#2049de302d)"><path fill="#ffffff" d="M 189.898438 103.96875 C 189.898438 103.96875 193.84375 91.472656 203.050781 79.976562 C 209.089844 72.4375 217.410156 65.3125 228.449219 62.601562 C 240.386719 59.671875 255.421875 61.945312 274.105469 74.058594 C 275.1875 74.761719 276.632812 74.453125 277.335938 73.371094 C 278.03125 72.292969 277.722656 70.847656 276.644531 70.140625 C 256.5 57.085938 240.214844 54.90625 227.339844 58.070312 C 215.222656 61.039062 206.03125 68.792969 199.40625 77.066406 C 189.621094 89.273438 185.453125 102.570312 185.453125 102.570312 C 185.070312 103.804688 185.753906 105.117188 186.976562 105.5 C 188.210938 105.886719 189.515625 105.203125 189.898438 103.96875 Z M 189.898438 103.96875 " fill-opacity="1" fill-rule="evenodd"/></g><g clip-path="url(#2507da3a34)"><path fill="#ffffff" d="M 189.0625 105.152344 C 189.0625 105.152344 210.265625 89.550781 233.253906 79.765625 C 248.074219 73.460938 263.636719 69.398438 274.425781 74.230469 C 275.59375 74.761719 276.980469 74.230469 277.5 73.054688 C 278.03125 71.886719 277.5 70.5 276.335938 69.976562 C 267.433594 65.988281 255.566406 67.191406 243.308594 71.039062 C 215.820312 79.6875 186.292969 101.394531 186.292969 101.394531 C 185.261719 102.15625 185.039062 103.621094 185.800781 104.652344 C 186.5625 105.695312 188.027344 105.914062 189.0625 105.152344 Z M 189.0625 105.152344 " fill-opacity="1" fill-rule="evenodd"/></g><path fill="#ffffff" d="M 217.601562 86.871094 C 217.601562 86.871094 233.945312 88.898438 246.105469 103.988281 C 246.914062 104.992188 248.382812 105.144531 249.382812 104.34375 C 250.386719 103.535156 250.542969 102.058594 249.730469 101.054688 C 236.300781 84.375 218.160156 82.242188 218.160156 82.242188 C 216.878906 82.089844 215.710938 82.996094 215.558594 84.277344 C 215.402344 85.550781 216.320312 86.71875 217.601562 86.871094 Z M 217.601562 86.871094 " fill-opacity="1" fill-rule="evenodd"/><path fill="#ffffff" d="M 237.1875 77.796875 C 237.1875 77.796875 240.253906 74.25 242.625 69.777344 C 244.320312 66.585938 245.605469 62.929688 245.441406 59.691406 C 245.371094 58.40625 244.273438 57.414062 242.980469 57.480469 C 241.699219 57.558594 240.707031 58.660156 240.773438 59.941406 C 240.910156 62.410156 239.800781 65.15625 238.507812 67.597656 C 236.386719 71.578125 233.65625 74.742188 233.65625 74.742188 C 232.808594 75.714844 232.914062 77.191406 233.890625 78.039062 C 234.863281 78.878906 236.335938 78.773438 237.1875 77.796875 Z M 237.1875 77.796875 Z M 237.1875 77.796875 " fill-opacity="1" fill-rule="evenodd"/><path fill="#ffffff" d="M 200.910156 96.351562 C 200.910156 96.351562 204.585938 88.097656 206.640625 81.609375 C 207.621094 78.484375 208.183594 75.707031 208.027344 74.191406 C 207.902344 72.910156 206.753906 71.972656 205.472656 72.109375 C 204.199219 72.234375 203.265625 73.382812 203.390625 74.664062 C 203.503906 75.792969 202.925781 77.855469 202.183594 80.199219 C 200.207031 86.476562 196.648438 94.449219 196.648438 94.449219 C 196.128906 95.628906 196.660156 97.007812 197.835938 97.535156 C 199.011719 98.058594 200.390625 97.527344 200.910156 96.351562 Z M 200.910156 96.351562 " fill-opacity="1" fill-rule="evenodd"/><g clip-path="url(#e52a0ac9ff)"><path fill="#ffffff" d="M 151.132812 132.007812 C 151.132812 132.472656 151.085938 132.929688 150.996094 133.382812 C 150.90625 133.835938 150.773438 134.277344 150.597656 134.703125 C 150.417969 135.128906 150.203125 135.535156 149.945312 135.917969 C 149.6875 136.304688 149.398438 136.660156 149.070312 136.984375 C 148.746094 137.3125 148.390625 137.605469 148.003906 137.859375 C 147.621094 138.117188 147.214844 138.332031 146.789062 138.511719 C 146.359375 138.6875 145.921875 138.820312 145.46875 138.910156 C 145.015625 139 144.558594 139.046875 144.09375 139.046875 C 143.632812 139.046875 143.175781 139 142.722656 138.910156 C 142.269531 138.820312 141.828125 138.6875 141.402344 138.511719 C 140.976562 138.332031 140.570312 138.117188 140.183594 137.859375 C 139.800781 137.605469 139.445312 137.3125 139.117188 136.984375 C 138.792969 136.660156 138.5 136.304688 138.242188 135.917969 C 137.988281 135.535156 137.769531 135.128906 137.59375 134.703125 C 137.417969 134.277344 137.285156 133.835938 137.191406 133.382812 C 137.101562 132.929688 137.058594 132.472656 137.058594 132.007812 C 137.058594 131.546875 137.101562 131.089844 137.191406 130.636719 C 137.285156 130.183594 137.417969 129.742188 137.59375 129.316406 C 137.769531 128.890625 137.988281 128.484375 138.242188 128.101562 C 138.5 127.714844 138.792969 127.359375 139.117188 127.035156 C 139.445312 126.707031 139.800781 126.414062 140.183594 126.160156 C 140.570312 125.902344 140.976562 125.683594 141.402344 125.507812 C 141.828125 125.332031 142.269531 125.199219 142.722656 125.109375 C 143.175781 125.015625 143.632812 124.972656 144.09375 124.972656 C 144.558594 124.972656 145.015625 125.015625 145.46875 125.109375 C 145.921875 125.199219 146.359375 125.332031 146.789062 125.507812 C 147.214844 125.683594 147.621094 125.902344 148.003906 126.160156 C 148.390625 126.414062 148.746094 126.707031 149.070312 127.035156 C 149.398438 127.359375 149.6875 127.714844 149.945312 128.101562 C 150.203125 128.484375 150.417969 128.890625 150.597656 129.316406 C 150.773438 129.742188 150.90625 130.183594 150.996094 130.636719 C 151.085938 131.089844 151.132812 131.546875 151.132812 132.007812 Z M 151.132812 132.007812 " fill-opacity="1" fill-rule="nonzero"/></g><g clip-path="url(#16112f898f)"><path fill="#ffffff" d="M 137.054688 150.289062 C 137.054688 150.753906 137.011719 151.210938 136.921875 151.664062 C 136.832031 152.117188 136.699219 152.558594 136.519531 152.984375 C 136.34375 153.410156 136.128906 153.816406 135.871094 154.199219 C 135.613281 154.585938 135.320312 154.941406 134.996094 155.265625 C 134.667969 155.59375 134.3125 155.886719 133.929688 156.140625 C 133.542969 156.398438 133.140625 156.617188 132.710938 156.792969 C 132.285156 156.96875 131.84375 157.101562 131.390625 157.191406 C 130.9375 157.28125 130.480469 157.328125 130.019531 157.328125 C 129.558594 157.328125 129.097656 157.28125 128.644531 157.191406 C 128.191406 157.101562 127.753906 156.96875 127.328125 156.792969 C 126.898438 156.617188 126.492188 156.398438 126.109375 156.140625 C 125.726562 155.886719 125.371094 155.59375 125.042969 155.265625 C 124.714844 154.941406 124.425781 154.585938 124.167969 154.199219 C 123.910156 153.816406 123.695312 153.410156 123.519531 152.984375 C 123.339844 152.558594 123.207031 152.117188 123.117188 151.664062 C 123.027344 151.210938 122.980469 150.753906 122.980469 150.289062 C 122.980469 149.828125 123.027344 149.371094 123.117188 148.917969 C 123.207031 148.464844 123.339844 148.023438 123.519531 147.597656 C 123.695312 147.171875 123.910156 146.765625 124.167969 146.382812 C 124.425781 145.996094 124.714844 145.640625 125.042969 145.316406 C 125.371094 144.988281 125.726562 144.695312 126.109375 144.441406 C 126.492188 144.183594 126.898438 143.964844 127.328125 143.789062 C 127.753906 143.613281 128.191406 143.480469 128.644531 143.390625 C 129.097656 143.296875 129.558594 143.253906 130.019531 143.253906 C 130.480469 143.253906 130.9375 143.296875 131.390625 143.390625 C 131.84375 143.480469 132.285156 143.613281 132.710938 143.789062 C 133.140625 143.964844 133.542969 144.183594 133.929688 144.441406 C 134.3125 144.695312 134.667969 144.988281 134.996094 145.316406 C 135.320312 145.640625 135.613281 145.996094 135.871094 146.382812 C 136.128906 146.765625 136.34375 147.171875 136.519531 147.597656 C 136.699219 148.023438 136.832031 148.464844 136.921875 148.917969 C 137.011719 149.371094 137.054688 149.828125 137.054688 150.289062 Z M 137.054688 150.289062 " fill-opacity="1" fill-rule="nonzero"/></g><g clip-path="url(#c7dd1fbd0b)"><path fill="#ffffff" d="M 156.285156 149.347656 C 156.285156 149.746094 156.246094 150.144531 156.167969 150.535156 C 156.089844 150.929688 155.972656 151.308594 155.820312 151.679688 C 155.667969 152.050781 155.480469 152.398438 155.257812 152.734375 C 155.035156 153.066406 154.78125 153.375 154.5 153.65625 C 154.214844 153.9375 153.90625 154.191406 153.574219 154.414062 C 153.242188 154.636719 152.890625 154.824219 152.519531 154.976562 C 152.152344 155.128906 151.769531 155.246094 151.378906 155.324219 C 150.984375 155.402344 150.589844 155.441406 150.191406 155.441406 C 149.789062 155.441406 149.394531 155.402344 149 155.324219 C 148.609375 155.246094 148.226562 155.128906 147.859375 154.976562 C 147.488281 154.824219 147.136719 154.636719 146.804688 154.414062 C 146.472656 154.191406 146.164062 153.9375 145.878906 153.65625 C 145.597656 153.375 145.34375 153.066406 145.121094 152.734375 C 144.902344 152.398438 144.710938 152.050781 144.558594 151.679688 C 144.40625 151.308594 144.289062 150.929688 144.210938 150.535156 C 144.132812 150.144531 144.097656 149.746094 144.097656 149.347656 C 144.097656 148.949219 144.132812 148.550781 144.210938 148.160156 C 144.289062 147.765625 144.40625 147.386719 144.558594 147.015625 C 144.710938 146.644531 144.902344 146.292969 145.121094 145.960938 C 145.34375 145.628906 145.597656 145.320312 145.878906 145.039062 C 146.164062 144.753906 146.472656 144.503906 146.804688 144.28125 C 147.136719 144.058594 147.488281 143.871094 147.859375 143.71875 C 148.226562 143.566406 148.609375 143.449219 149 143.371094 C 149.394531 143.292969 149.789062 143.253906 150.191406 143.253906 C 150.589844 143.253906 150.984375 143.292969 151.378906 143.371094 C 151.769531 143.449219 152.152344 143.566406 152.519531 143.71875 C 152.890625 143.871094 153.242188 144.058594 153.574219 144.28125 C 153.90625 144.503906 154.214844 144.753906 154.5 145.039062 C 154.78125 145.320312 155.035156 145.628906 155.257812 145.960938 C 155.480469 146.292969 155.667969 146.644531 155.820312 147.015625 C 155.972656 147.386719 156.089844 147.765625 156.167969 148.160156 C 156.246094 148.550781 156.285156 148.949219 156.285156 149.347656 Z M 156.285156 149.347656 " fill-opacity="1" fill-rule="nonzero"/></g><g clip-path="url(#8c0deab210)"><path fill="#ffffff" d="M 158.171875 296.285156 C 158.171875 296.746094 158.125 297.203125 158.035156 297.65625 C 157.945312 298.109375 157.8125 298.550781 157.632812 298.976562 C 157.457031 299.402344 157.242188 299.808594 156.984375 300.191406 C 156.726562 300.578125 156.433594 300.933594 156.109375 301.257812 C 155.78125 301.585938 155.425781 301.878906 155.042969 302.132812 C 154.660156 302.390625 154.253906 302.609375 153.824219 302.785156 C 153.398438 302.960938 152.957031 303.09375 152.503906 303.183594 C 152.050781 303.277344 151.59375 303.320312 151.132812 303.320312 C 150.671875 303.320312 150.214844 303.277344 149.761719 303.183594 C 149.308594 303.09375 148.867188 302.960938 148.441406 302.785156 C 148.011719 302.609375 147.605469 302.390625 147.222656 302.132812 C 146.839844 301.878906 146.484375 301.585938 146.15625 301.257812 C 145.832031 300.933594 145.539062 300.578125 145.28125 300.191406 C 145.023438 299.808594 144.808594 299.402344 144.632812 298.976562 C 144.453125 298.550781 144.320312 298.109375 144.230469 297.65625 C 144.140625 297.203125 144.097656 296.746094 144.097656 296.285156 C 144.097656 295.820312 144.140625 295.363281 144.230469 294.910156 C 144.320312 294.457031 144.453125 294.015625 144.632812 293.589844 C 144.808594 293.164062 145.023438 292.757812 145.28125 292.375 C 145.539062 291.988281 145.832031 291.632812 146.15625 291.308594 C 146.484375 290.980469 146.839844 290.6875 147.222656 290.433594 C 147.605469 290.175781 148.011719 289.957031 148.441406 289.78125 C 148.867188 289.605469 149.308594 289.472656 149.761719 289.382812 C 150.214844 289.292969 150.671875 289.246094 151.132812 289.246094 C 151.59375 289.246094 152.050781 289.292969 152.503906 289.382812 C 152.957031 289.472656 153.398438 289.605469 153.824219 289.78125 C 154.253906 289.957031 154.660156 290.175781 155.042969 290.433594 C 155.425781 290.6875 155.78125 290.980469 156.109375 291.308594 C 156.433594 291.632812 156.726562 291.988281 156.984375 292.375 C 157.242188 292.757812 157.457031 293.164062 157.632812 293.589844 C 157.8125 294.015625 157.945312 294.457031 158.035156 294.910156 C 158.125 295.363281 158.171875 295.820312 158.171875 296.285156 Z M 158.171875 296.285156 " fill-opacity="1" fill-rule="nonzero"/></g><g clip-path="url(#ab447e1342)"><path fill="#ffffff" d="M 187.5 287.125 C 187.5 287.585938 187.453125 288.042969 187.363281 288.496094 C 187.273438 288.949219 187.140625 289.390625 186.960938 289.816406 C 186.785156 290.246094 186.570312 290.648438 186.3125 291.035156 C 186.054688 291.417969 185.765625 291.773438 185.4375 292.101562 C 185.109375 292.425781 184.753906 292.71875 184.371094 292.976562 C 183.988281 293.234375 183.582031 293.449219 183.15625 293.625 C 182.726562 293.804688 182.289062 293.9375 181.835938 294.027344 C 181.382812 294.117188 180.921875 294.160156 180.460938 294.160156 C 180 294.160156 179.542969 294.117188 179.089844 294.027344 C 178.636719 293.9375 178.195312 293.804688 177.769531 293.625 C 177.339844 293.449219 176.9375 293.234375 176.550781 292.976562 C 176.167969 292.71875 175.8125 292.425781 175.484375 292.101562 C 175.160156 291.773438 174.867188 291.417969 174.609375 291.035156 C 174.351562 290.648438 174.136719 290.246094 173.960938 289.816406 C 173.78125 289.390625 173.648438 288.949219 173.558594 288.496094 C 173.46875 288.042969 173.425781 287.585938 173.425781 287.125 C 173.425781 286.664062 173.46875 286.207031 173.558594 285.753906 C 173.648438 285.300781 173.78125 284.859375 173.960938 284.433594 C 174.136719 284.003906 174.351562 283.597656 174.609375 283.214844 C 174.867188 282.832031 175.160156 282.476562 175.484375 282.148438 C 175.8125 281.820312 176.167969 281.53125 176.550781 281.273438 C 176.9375 281.015625 177.339844 280.800781 177.769531 280.625 C 178.195312 280.445312 178.636719 280.3125 179.089844 280.222656 C 179.542969 280.132812 180 280.085938 180.460938 280.085938 C 180.921875 280.085938 181.382812 280.132812 181.835938 280.222656 C 182.289062 280.3125 182.726562 280.445312 183.15625 280.625 C 183.582031 280.800781 183.988281 281.015625 184.371094 281.273438 C 184.753906 281.53125 185.109375 281.820312 185.4375 282.148438 C 185.765625 282.476562 186.054688 282.832031 186.3125 283.214844 C 186.570312 283.597656 186.785156 284.003906 186.960938 284.433594 C 187.140625 284.859375 187.273438 285.300781 187.363281 285.753906 C 187.453125 286.207031 187.5 286.664062 187.5 287.125 Z M 187.5 287.125 " fill-opacity="1" fill-rule="nonzero"/></g><g clip-path="url(#0612dddeae)"><path fill="#ffffff" d="M 169.308594 290.640625 C 169.308594 291.109375 169.222656 291.554688 169.042969 291.988281 C 168.863281 292.417969 168.609375 292.796875 168.28125 293.128906 C 167.949219 293.457031 167.570312 293.710938 167.140625 293.890625 C 166.710938 294.066406 166.261719 294.15625 165.792969 294.15625 C 165.328125 294.15625 164.878906 294.066406 164.449219 293.890625 C 164.019531 293.710938 163.636719 293.457031 163.308594 293.128906 C 162.980469 292.796875 162.726562 292.417969 162.546875 291.988281 C 162.367188 291.554688 162.277344 291.109375 162.277344 290.640625 C 162.277344 290.175781 162.367188 289.726562 162.546875 289.296875 C 162.726562 288.863281 162.980469 288.484375 163.308594 288.15625 C 163.636719 287.824219 164.019531 287.570312 164.449219 287.394531 C 164.878906 287.214844 165.328125 287.125 165.792969 287.125 C 166.261719 287.125 166.710938 287.214844 167.140625 287.394531 C 167.570312 287.570312 167.949219 287.824219 168.28125 288.15625 C 168.609375 288.484375 168.863281 288.863281 169.042969 289.296875 C 169.222656 289.726562 169.308594 290.175781 169.308594 290.640625 Z M 169.308594 290.640625 " fill-opacity="1" fill-rule="nonzero"/></g></svg>